<svg width="26" height="27" viewBox="0 0 26 31" fill="none" xmlns="http://www.w3.org/2000/svg">
<path d="M13 0C6.5 0 0 0.8125 0 6.5V21.9375C0 25.0737 2.55125 27.625 5.6875 27.625L3.25 29.25V30.875H22.75V29.25L20.3125 27.625C23.4487 27.625 26 25.0737 26 21.9375V6.5C26 0.8125 20.1825 0 13 0ZM13 3.25C19.0287 3.25 21.3363 3.9975 22.2138 4.875H3.94875C4.92375 4.03 7.28 3.25 13 3.25ZM22.75 21.9375C22.75 23.2862 21.6612 24.375 20.3125 24.375H5.6875C4.33875 24.375 3.25 23.2862 3.25 21.9375V16.25H22.75V21.9375ZM22.75 13H3.25V8.125H22.75V13Z" fill="#C6C6C6"/>
<path d="M13 22.75C14.3462 22.75 15.4375 21.6587 15.4375 20.3125C15.4375 18.9663 14.3462 17.875 13 17.875C11.6538 17.875 10.5625 18.9663 10.5625 20.3125C10.5625 21.6587 11.6538 22.75 13 22.75Z" fill="#C6C6C6"/>
</svg>
