<svg width="14" height="12" viewBox="0 0 14 12" fill="none" xmlns="http://www.w3.org/2000/svg">
<path fill-rule="evenodd" clip-rule="evenodd" d="M13.113 10.8803C13.2591 10.7062 13.3185 10.4715 13.2781 10.2278C13.2378 9.98421 13.101 9.75158 12.8978 9.58112L4.02345 2.13461L9.67651 2.07709C9.79894 2.07582 9.91622 2.05077 10.0217 2.00336C10.1271 1.95596 10.2187 1.88714 10.2911 1.80083C10.3635 1.71452 10.4154 1.61241 10.4438 1.50033C10.4721 1.38825 10.4764 1.26839 10.4564 1.1476C10.4364 1.02682 10.3925 0.907461 10.3272 0.796355C10.2619 0.685249 10.1764 0.584567 10.0757 0.500058C9.97496 0.415549 9.86097 0.348866 9.7402 0.30382C9.61944 0.258773 9.49427 0.236244 9.37184 0.237518L1.47129 0.31973C1.3488 0.320852 1.23142 0.345801 1.12589 0.393148C1.02036 0.440496 0.928745 0.509311 0.856295 0.595652C0.783846 0.681994 0.731984 0.784165 0.703682 0.896315C0.675379 1.00846 0.671191 1.12839 0.691358 1.24922L1.98231 9.04402C2.02271 9.28796 2.15968 9.52089 2.36308 9.69157C2.56648 9.86224 2.81966 9.95668 3.06691 9.95411C3.31416 9.95153 3.53524 9.85216 3.6815 9.67785C3.82777 9.50353 3.88724 9.26856 3.84684 9.02462L2.92185 3.44745L11.7962 10.894C11.9994 11.0644 12.2522 11.1587 12.4992 11.1562C12.7461 11.1536 12.9669 11.0543 13.113 10.8803Z" fill="#5396FF"/>
</svg>
