<svg width="13" height="12" viewBox="0 0 13 12" fill="none" xmlns="http://www.w3.org/2000/svg">
<path fill-rule="evenodd" clip-rule="evenodd" d="M5.68548e-06 0.836639C5.70566e-06 0.374814 0.37482 -3.91257e-07 0.836644 -3.7107e-07L8.48911 -3.65707e-08C8.95093 -1.63837e-08 9.32574 0.374814 9.32574 0.836639C9.32574 1.29846 8.95093 1.67328 8.48911 1.67328L0.836644 1.67328C0.37482 1.67328 5.66529e-06 1.29846 5.68548e-06 0.836639Z" fill="#2e7450"/>
<path fill-rule="evenodd" clip-rule="evenodd" d="M0.00131603 6.04269C0.00131605 5.58087 0.37613 5.20605 0.837955 5.20605L12.1527 5.20605C12.6145 5.20605 12.9893 5.58087 12.9893 6.04269C12.9893 6.50452 12.6145 6.87933 12.1527 6.87933L0.837955 6.87933C0.37613 6.87933 0.00131601 6.50452 0.00131603 6.04269Z" fill="#2e7450"/>
<path fill-rule="evenodd" clip-rule="evenodd" d="M0.00111481 11.1633C0.00111483 10.7015 0.37593 10.3267 0.837755 10.3267L4.44534 10.3267C4.90717 10.3267 5.28198 10.7015 5.28198 11.1633C5.28198 11.6251 4.90717 11.9999 4.44534 11.9999L0.837755 11.9999C0.37593 11.9999 0.00111479 11.6251 0.00111481 11.1633Z" fill="#2e7450"/>
</svg>
