<svg width="20" height="21" viewBox="0 0 20 21" fill="none" xmlns="http://www.w3.org/2000/svg">
<path d="M10 0.93457C4.48 0.93457 0 5.41457 0 10.9346C0 16.4546 4.48 20.9346 10 20.9346C15.52 20.9346 20 16.4546 20 10.9346C20 5.41457 15.52 0.93457 10 0.93457ZM11 17.9346H9V15.9346H11V17.9346ZM13.07 10.1846L12.17 11.1046C11.67 11.6146 11.31 12.0746 11.13 12.7946C11.05 13.1146 11 13.4746 11 13.9346H9V13.4346C9 12.9746 9.08 12.5346 9.22 12.1246C9.42 11.5446 9.75 11.0246 10.17 10.6046L11.41 9.34457C11.87 8.90457 12.09 8.24457 11.96 7.54457C11.83 6.82457 11.27 6.21457 10.57 6.01457C9.46 5.70457 8.43 6.33457 8.1 7.28457C7.98 7.65457 7.67 7.93457 7.28 7.93457H6.98C6.4 7.93457 6 7.37457 6.16 6.81457C6.59 5.34457 7.84 4.22457 9.39 3.98457C10.91 3.74457 12.36 4.53457 13.26 5.78457C14.44 7.41457 14.09 9.16457 13.07 10.1846Z" fill="#5396FF"/>
</svg>
