<svg width="26" height="25" viewBox="0 0 26 25" fill="none" xmlns="http://www.w3.org/2000/svg">
<path d="M13 3.8999C13.728 3.8999 14.3 3.3149 14.3 2.5999L14.3 1.2999C14.3 0.584902 13.715 -9.78028e-05 13 -9.78653e-05C12.285 -9.79278e-05 11.7 0.584902 11.7 1.2999L11.7 2.5999C11.7 3.3149 12.285 3.8999 13 3.8999Z" fill="#2e7450"/>
<path d="M20.813 6.38292L21.736 5.45992C22.243 4.95292 22.243 4.13392 21.736 3.62692C21.229 3.11992 20.41 3.11992 19.903 3.62692L18.98 4.54992C18.473 5.05692 18.473 5.87592 18.98 6.38292C19.474 6.87692 20.306 6.87692 20.813 6.38292Z" fill="#2e7450"/>
<path d="M22.1 13C22.1 13.715 22.685 14.3 23.4 14.3L24.7 14.3C25.415 14.3 26 13.715 26 13C26 12.285 25.415 11.7 24.7 11.7L23.4 11.7C22.685 11.7 22.1 12.285 22.1 13Z" fill="#2e7450"/>
<path d="M1.2999 14.3L2.5999 14.3C3.3149 14.3 3.8999 13.715 3.8999 13C3.8999 12.285 3.3149 11.7 2.5999 11.7L1.2999 11.7C0.584902 11.7 -9.75755e-05 12.285 -9.7638e-05 13C-9.77005e-05 13.715 0.584902 14.3 1.2999 14.3Z" fill="#2e7450"/>
<path d="M5.1869 6.38269C5.6939 6.88969 6.5129 6.88969 7.0199 6.38269C7.5269 5.87569 7.5269 5.05669 7.0199 4.54969L6.0969 3.62669C5.5899 3.11969 4.7709 3.11969 4.2639 3.62669C3.7569 4.13369 3.7569 4.95269 4.2639 5.45969L5.1869 6.38269Z" fill="#2e7450"/>
<path d="M9.10011 18.1739L9.10011 22.1C9.10011 23.53 10.2701 24.7 11.7001 24.7L14.3001 24.7C15.7301 24.7 16.9001 23.53 16.9001 22.1L16.9001 18.174C18.7591 16.77 19.8641 14.404 19.3831 11.791C18.9151 9.25595 16.9131 7.17595 14.3911 6.65595C10.1921 5.77195 6.50011 8.95695 6.50011 13C6.50011 15.119 7.52711 16.978 9.10011 18.1739ZM11.7001 19.37C12.1161 19.448 12.5581 19.5 13.0001 19.5C13.4421 19.5 13.8841 19.448 14.3001 19.37L14.3001 22.1L11.7001 22.1L11.7001 19.37Z" fill="#2e7450"/>
</svg>
