<?xml version="1.0" encoding="utf-8"?>
<!-- Generator: Adobe Illustrator 28.0.0, SVG Export Plug-In . SVG Version: 6.00 Build 0)  -->
<svg version="1.1" id="Layer_1" xmlns="http://www.w3.org/2000/svg" xmlns:xlink="http://www.w3.org/1999/xlink" x="0px" y="0px"
	 viewBox="0 0 512 512" style="enable-background:new 0 0 512 512;" xml:space="preserve">
<style type="text/css">
	.st0{fill:#2E7451;}
	.st1{fill:#FFFFFF;}
</style>
<rect class="st0" width="512" height="512"/>
<g>
	<g>
		<path class="st1" d="M402.28,118.78H160.77c-1.1,0-2.14,0.05-3.09,0.18c-13.89,1.63-13.36,14.26-13.36,14.26v227.95
			c0,1.46-0.18,2.89-0.51,4.24c-0.6,2.47-1.72,4.73-3.22,6.67c-3.23,4.19-8.32,6.87-14,6.87c-1.22,0-2.41-0.13-3.56-0.37
			c-2.72-0.55-5.23-1.74-7.35-3.38l-0.05-0.05c-1.68-1.33-3.13-2.96-4.22-4.81c-1.22-1.99-2.05-4.24-2.38-6.63
			c-0.15-0.84-0.2-1.66-0.2-2.54V189.93c0-3.93-3.18-7.11-7.11-7.11c-1.97,0-3.75,0.79-5.03,2.08c-1.3,1.28-2.08,3.05-2.08,5.03
			v171.23c0,6.42,1.88,12.39,5.15,17.42c0.15,0.26,0.31,0.51,0.48,0.75c0.18,0.26,0.37,0.51,0.55,0.77
			c0.05,0.05,0.09,0.13,0.15,0.18c1.15,1.52,2.39,3,3.82,4.3c2.03,1.86,4.24,3.47,6.65,4.79c4.51,2.47,9.69,3.86,15.19,3.86h234.62
			c30.98,0,56.18-25.2,56.18-56.18V133.89C417.39,125.56,410.61,118.78,402.28,118.78z M403.14,337.04
			c0,23.14-18.81,41.94-41.93,41.94H153.13c1.46-2.14,2.63-4.46,3.53-6.91c1.22-3.4,1.9-7.09,1.9-10.91V133.04h243.72
			c0.48,0,0.86,0.4,0.86,0.86V337.04z"/>
		<g>
			<g>
				<path class="st1" d="M374.68,176.37h-67.29c-5.1,0-9.23,4.13-9.23,9.23v45.37c0,5.1,4.13,9.23,9.23,9.23h67.29
					c5.1,0,9.23-4.13,9.23-9.23V185.6C383.91,180.5,379.78,176.37,374.68,176.37z"/>
				<path class="st1" d="M279.8,184.78h-98.15c-2.24,0-4.05,1.81-4.05,4.05v0.27c0,2.24,1.81,4.05,4.05,4.05h98.15
					c2.22,0,4.03-1.81,4.03-4.05v-0.27C283.83,186.59,282.02,184.78,279.8,184.78z"/>
				<path class="st1" d="M279.8,204.1h-98.15c-2.24,0-4.05,1.81-4.05,4.05v0.27c0,2.24,1.81,4.05,4.05,4.05h98.15
					c2.22,0,4.03-1.81,4.03-4.05v-0.27C283.83,205.91,282.02,204.1,279.8,204.1z"/>
				<path class="st1" d="M279.8,223.43h-49.22c-2.24,0-4.05,1.81-4.05,4.05v0.27c0,2.24,1.81,4.05,4.05,4.05h49.22
					c2.22,0,4.03-1.81,4.03-4.05v-0.27C283.83,225.24,282.02,223.43,279.8,223.43z"/>
			</g>
			<g>
				<path class="st1" d="M186.83,271.8h67.29c5.1,0,9.23,4.13,9.23,9.23v45.37c0,5.1-4.13,9.23-9.23,9.23h-67.29
					c-5.1,0-9.23-4.13-9.23-9.23v-45.37C177.61,275.93,181.74,271.8,186.83,271.8z"/>
				<path class="st1" d="M281.71,280.21h98.15c2.24,0,4.05,1.81,4.05,4.05v0.27c0,2.24-1.81,4.05-4.05,4.05h-98.15
					c-2.22,0-4.03-1.81-4.03-4.05v-0.27C277.68,282.02,279.49,280.21,281.71,280.21z"/>
				<path class="st1" d="M281.71,299.53h98.15c2.24,0,4.05,1.81,4.05,4.05v0.27c0,2.24-1.81,4.05-4.05,4.05h-98.15
					c-2.22,0-4.03-1.81-4.03-4.05v-0.27C277.68,301.34,279.49,299.53,281.71,299.53z"/>
				<path class="st1" d="M281.71,318.85h49.22c2.24,0,4.05,1.81,4.05,4.05v0.27c0,2.24-1.81,4.05-4.05,4.05h-49.22
					c-2.22,0-4.03-1.81-4.03-4.05v-0.27C277.68,320.66,279.49,318.85,281.71,318.85z"/>
			</g>
		</g>
	</g>
	<g>
		<path class="st1" d="M126.59,152.9c-1.97,0-3.75,0.8-5.04,2.08c-1.3,1.28-2.08,3.07-2.08,5.03V360.6c0,3.93,3.18,7.11,7.13,7.11
			c1.96,0,3.75-0.79,5.03-2.08c1.28-1.28,2.08-3.05,2.08-5.03V160.01C133.7,156.08,130.52,152.9,126.59,152.9z"/>
	</g>
</g>
</svg>
