<svg width="114" height="80" viewBox="0 0 114 80" fill="none" xmlns="http://www.w3.org/2000/svg">
<path d="M101.846 37.6856H80.0657L69.1754 18.7773H47.264L36.4608 0H12.1536L0 21.0917L10.9775 40.131L0.174245 58.9083L12.3279 80H36.5915L47.569 60.9607H66.6488L77.5392 79.869H101.846L114 58.7773L101.846 37.6856ZM14.6802 4.36681H33.9343L43.5613 21.0917L33.8907 37.8166H14.6802L5.00955 21.0917L14.6802 4.36681ZM34.065 75.6332H14.8109L5.1838 58.9083L14.8109 42.1834H34.065L43.692 58.9083L34.065 75.6332ZM47.3947 56.5939L37.7677 39.869L47.3947 23.1441H66.6488L76.2759 39.869L66.6488 56.5939H47.3947ZM99.3198 75.5022H80.0657L70.4387 58.7773L80.0657 42.0524H99.3198L108.947 58.7773L99.3198 75.5022Z" fill="white"/>
</svg>
