<svg width="26" height="26" viewBox="0 0 26 26" fill="none" xmlns="http://www.w3.org/2000/svg">
<path d="M13 0C5.824 0 0 5.824 0 13C0 20.176 5.824 26 13 26C20.176 26 26 20.176 26 13C26 5.824 20.176 0 13 0ZM14.3 4.29L16.055 3.055C18.421 3.783 20.436 5.343 21.749 7.397L21.242 9.139L19.487 9.737L14.3 6.11V4.29ZM9.945 3.055L11.7 4.29V6.11L6.513 9.737L4.758 9.139L4.251 7.397C5.564 5.356 7.579 3.796 9.945 3.055ZM6.604 19.643L5.122 19.773C3.549 17.953 2.6 15.587 2.6 13C2.6 12.844 2.613 12.701 2.626 12.545L3.926 11.596L5.72 12.22L7.618 17.862L6.604 19.643ZM16.25 22.867C15.223 23.205 14.131 23.4 13 23.4C11.869 23.4 10.777 23.205 9.75 22.867L8.853 20.93L9.685 19.5H16.328L17.16 20.943L16.25 22.867ZM15.951 16.9H10.049L8.294 11.674L13 8.372L17.719 11.674L15.951 16.9ZM20.878 19.773L19.396 19.643L18.369 17.862L20.267 12.22L22.074 11.609L23.374 12.558C23.387 12.701 23.4 12.844 23.4 13C23.4 15.587 22.451 17.953 20.878 19.773Z" fill="#FCFCFD"/>
</svg>
