<svg width="26" height="26" viewBox="0 0 26 26" fill="none" xmlns="http://www.w3.org/2000/svg">
<path d="M25.2778 0H24.9889L17.3333 3.03333L8.66667 0L0.577778 2.74444C0.144445 2.88889 0 3.17778 0 3.46667V25.2778C0 25.7111 0.288889 26 0.722222 26H1.01111L8.66667 22.9667L17.3333 26L25.4222 23.2556C25.7111 23.1111 26 22.8222 26 22.5333V0.722222C26 0.288889 25.7111 0 25.2778 0ZM10.1111 3.61111L15.8889 5.63333V22.5333L10.1111 20.5111V3.61111ZM2.88889 5.05556L7.22222 3.61111V20.5111L2.88889 22.2444V5.05556ZM23.1111 20.9444L18.7778 22.3889V5.63333L23.1111 3.9V20.9444Z" fill="#FCFCFD"/>
</svg>
