<svg width="29" height="26" viewBox="0 0 29 26" fill="none" xmlns="http://www.w3.org/2000/svg">
<path d="M1.68535 23.0052L3.45498 23.8219V11.5707L0.187968 19.4659C-0.356533 20.9633 0.324093 22.4607 1.68535 23.0052ZM28.2298 17.9685L21.4235 1.6335C21.0151 0.544501 20.0623 0 18.9733 0C18.5649 0 18.2926 6.08528e-08 17.8843 0.272251L7.81099 4.35601C6.85811 4.90051 6.31361 5.85339 6.31361 6.94239C6.31361 7.35077 6.31361 7.62302 6.58586 8.03139L13.3921 24.3664C13.8005 25.4554 14.8895 25.9999 15.8424 25.9999C16.2508 25.9999 16.523 25.9999 16.9314 25.8638L27.0047 21.7801C28.2298 20.9633 28.9104 19.4659 28.2298 17.9685ZM15.7063 23.2774L8.89999 6.94239L18.8371 2.85863L25.6434 19.1937C25.7795 19.0575 15.7063 23.2774 15.7063 23.2774Z" fill="#C6C6C6"/>
<path d="M13.256 9.93711C14.0078 9.93711 14.6173 9.32765 14.6173 8.57585C14.6173 7.82405 14.0078 7.2146 13.256 7.2146C12.5042 7.2146 11.8948 7.82405 11.8948 8.57585C11.8948 9.32765 12.5042 9.93711 13.256 9.93711Z" fill="#C6C6C6"/>
<path d="M6.31361 23.2776C6.31361 24.7749 7.53874 26.0001 9.03612 26.0001H10.9419L6.31361 14.7017V23.2776Z" fill="#C6C6C6"/>
</svg>
